<svg width="24" height="24" viewBox="0 0 24 24"
     fill="none" xmlns="http://www.w3.org/2000/svg">
  <g stroke="currentColor" stroke-width="0.7" stroke-linecap="round" stroke-linejoin="round">

    <!-- Outer petals: 24 (15° step), long & thin -->
    <path id="petalOuter"
      d="M12 1.9
         C13.0 3.6 13.0 6.4 12 8.6
         C11.0 6.4 11.0 3.6 12 1.9Z"/>
    <use href="#petalOuter" transform="rotate(15 12 12)"/>
    <use href="#petalOuter" transform="rotate(30 12 12)"/>
    <use href="#petalOuter" transform="rotate(45 12 12)"/>
    <use href="#petalOuter" transform="rotate(60 12 12)"/>
    <use href="#petalOuter" transform="rotate(75 12 12)"/>
    <use href="#petalOuter" transform="rotate(90 12 12)"/>
    <use href="#petalOuter" transform="rotate(105 12 12)"/>
    <use href="#petalOuter" transform="rotate(120 12 12)"/>
    <use href="#petalOuter" transform="rotate(135 12 12)"/>
    <use href="#petalOuter" transform="rotate(150 12 12)"/>
    <use href="#petalOuter" transform="rotate(165 12 12)"/>
    <use href="#petalOuter" transform="rotate(180 12 12)"/>
    <use href="#petalOuter" transform="rotate(195 12 12)"/>
    <use href="#petalOuter" transform="rotate(210 12 12)"/>
    <use href="#petalOuter" transform="rotate(225 12 12)"/>
    <use href="#petalOuter" transform="rotate(240 12 12)"/>
    <use href="#petalOuter" transform="rotate(255 12 12)"/>
    <use href="#petalOuter" transform="rotate(270 12 12)"/>
    <use href="#petalOuter" transform="rotate(285 12 12)"/>
    <use href="#petalOuter" transform="rotate(300 12 12)"/>
    <use href="#petalOuter" transform="rotate(315 12 12)"/>
    <use href="#petalOuter" transform="rotate(330 12 12)"/>
    <use href="#petalOuter" transform="rotate(345 12 12)"/>

    <!-- Inner petals: 12 (30° step), thin -->
    <g opacity="0.9">
      <path id="petalInner"
        d="M12 4.6
           C12.55 5.8 12.55 7.4 12 8.9
           C11.45 7.4 11.45 5.8 12 4.6Z"/>
      <use href="#petalInner" transform="rotate(30 12 12)"/>
      <use href="#petalInner" transform="rotate(60 12 12)"/>
      <use href="#petalInner" transform="rotate(90 12 12)"/>
      <use href="#petalInner" transform="rotate(120 12 12)"/>
      <use href="#petalInner" transform="rotate(150 12 12)"/>
      <use href="#petalInner" transform="rotate(180 12 12)"/>
      <use href="#petalInner" transform="rotate(210 12 12)"/>
      <use href="#petalInner" transform="rotate(240 12 12)"/>
      <use href="#petalInner" transform="rotate(270 12 12)"/>
      <use href="#petalInner" transform="rotate(300 12 12)"/>
      <use href="#petalInner" transform="rotate(330 12 12)"/>
    </g>

    <!-- Center: minimal -->
    <circle cx="12" cy="12" r="0.8"/>
  </g>
</svg>
